<?xml version="1.0" encoding="utf-8"?>
<!-- Generator: Adobe Illustrator 24.1.0, SVG Export Plug-In . SVG Version: 6.00 Build 0)  -->
<svg version="1.1" id="d46f8466-4a6f-4b30-a49f-7582321b8b97"
	 xmlns="http://www.w3.org/2000/svg" xmlns:xlink="http://www.w3.org/1999/xlink" x="0px" y="0px" viewBox="0 0 199.2 79.9"
	 style="enable-background:new 0 0 199.2 79.9;" xml:space="preserve">
<style type="text/css">
	.st0{fill:#545454;}
	.st1{enable-background:new    ;}
	.st2{fill:#14559A;}
	.st3{fill:#2B74B1;}
	.st4{fill:#125A9E;}
	.st5{fill:#0D82CA;}
	.st6{fill:#127BCA;}
	.st7{fill:#7DCBEC;}
	.st8{fill:#5EC5ED;}
	.st9{fill:url(#_x32_2dd263f-07a8-4d3f-8368-f4932ee90850_2_);}
	.st10{fill:url(#_x38_756facc-76ee-42ee-a12b-95b4beccc6f7_2_);}
	.st11{fill:url(#_x39_fff70fe-4a20-4395-b73e-68995a9a1993_1_);}
	.st12{fill:url(#_x32_43f39b0-4082-4326-ab36-66325b69c66c_1_);}
	.st13{fill:url(#_x38_1f715f6-f916-4876-819b-8c81d8a91545_1_);}
	.st14{fill:#3092C4;}
	.st15{fill:#1969BC;}
	.st16{fill:url(#ef55eeec-9389-4b7d-aad8-972a9b0edfaa_1_);}
	.st17{fill:url(#_x39_47df287-50e3-4afd-a65c-b12952837621_1_);}
	.st18{fill:url(#_x32_2ab39c0-5aeb-481a-a344-2af6a77fbb68_1_);}
	.st19{fill:url(#e222603b-39c1-4207-8880-0dbfaf77ca7a_1_);}
	.st20{fill:url(#_x38_5ae914f-805b-4263-985a-0762281d3e57_1_);}
	.st21{fill:url(#_x39_53eeb24-d604-49e3-9d66-756a1f2cbf49_1_);}
	.st22{fill:url(#_x35_f1ad690-e159-4c0d-aa7a-dbfe59f0a4dd_1_);}
	.st23{fill:url(#_x30_b513344-d537-42bf-9244-5c1e088e479b_1_);}
	.st24{fill:#05A1E6;}
	.st25{fill:url(#_x34_d2dab44-9cc2-4328-b84c-5a74546910ff_1_);}
	.st26{fill:url(#_x31_d48d8f5-63b8-4faf-a435-f71c7a0a9b70_1_);}
	.st27{fill:url(#cc16ff1c-5371-4c51-b9a6-d519e11a23ac_1_);}
	.st28{fill:#079AE1;}
	.st29{fill:#1E5CB3;}
	.st30{fill:#1D60B5;}
	.st31{fill:#175FAB;}
	.st32{fill:url(#f153080f-0bd7-4ff0-9dc1-1701c7d2f494_1_);}
	.st33{fill:url(#_x32_2dd263f-07a8-4d3f-8368-f4932ee90850_3_);}
	.st34{fill:url(#_x38_756facc-76ee-42ee-a12b-95b4beccc6f7_3_);}
	.st35{fill:url(#feddcb59-4309-445f-859a-b895ced50bea_1_);}
	.st36{fill:#5C2D91;}
	.st37{opacity:0.1;fill:#FFFFFF;enable-background:new    ;}
	.st38{fill:#FFFFFF;}
	.st39{fill:#F2F2F2;}
</style>
<path class="st0" d="M105.8,54.6c-0.2,0.2-0.3,0.3-0.6,0.3c-0.4,0.2-0.9,0.2-1.3,0c-0.2-0.1-0.4-0.2-0.6-0.3
	c-0.1-0.1-0.1-0.2-0.2-0.3c0-0.1-0.1-0.2-0.2-0.3s-0.1-0.2-0.1-0.3c0-0.2,0-0.4,0-0.6c0-0.1,0-0.2,0.1-0.3s0.1-0.2,0.2-0.3
	c0-0.1,0.1-0.2,0.2-0.3l5.6-5.5H92.8c-0.2,0-0.5,0-0.7-0.1c-0.4-0.2-0.7-0.5-0.9-0.9c-0.2-0.4-0.2-0.9,0-1.3
	c0.2-0.4,0.5-0.7,0.9-0.9c0.2-0.1,0.4-0.1,0.7-0.1H109l-5.5-5.7c-0.2-0.2-0.3-0.3-0.4-0.6c-0.2-0.4-0.2-0.9,0-1.3
	c0.1-0.2,0.2-0.4,0.4-0.6s0.3-0.3,0.6-0.3c0.4-0.2,0.9-0.2,1.3,0c0.2,0.1,0.4,0.2,0.6,0.3l8.4,8.4c0.2,0.2,0.3,0.3,0.4,0.6
	c0.2,0.4,0.2,0.9,0,1.3c-0.1,0.2-0.2,0.4-0.4,0.6L105.8,54.6z"/>
<g class="st1">
	<path d="M29.8,68.7H28l-1.7-6c-0.1-0.3-0.2-0.6-0.3-1.1c-0.1-0.5-0.2-0.8-0.2-1c0,0.3-0.1,0.7-0.2,1.1c-0.1,0.5-0.2,0.8-0.3,1
		l-1.7,5.9h-1.8l-1.3-5l-1.3-5H21l1.4,5.8c0.2,0.9,0.4,1.8,0.5,2.5c0-0.4,0.1-0.8,0.2-1.3s0.2-0.9,0.3-1.2l1.6-5.8h1.6l1.7,5.9
		c0.2,0.5,0.3,1.4,0.5,2.4c0.1-0.7,0.2-1.5,0.5-2.5l1.4-5.8h1.7L29.8,68.7z"/>
	<path d="M36.9,68.8c-1.2,0-2.1-0.3-2.8-1c-0.7-0.7-1-1.6-1-2.8c0-1.2,0.3-2.2,0.9-2.9c0.6-0.7,1.5-1.1,2.5-1.1c1,0,1.8,0.3,2.4,0.9
		c0.6,0.6,0.9,1.4,0.9,2.5v0.9h-5c0,0.7,0.2,1.3,0.6,1.7c0.4,0.4,0.9,0.6,1.6,0.6c0.4,0,0.9,0,1.2-0.1c0.4-0.1,0.8-0.2,1.2-0.4v1.3
		c-0.4,0.2-0.8,0.3-1.2,0.4C37.9,68.8,37.5,68.8,36.9,68.8z M36.6,62.2c-0.5,0-0.9,0.2-1.2,0.5c-0.3,0.3-0.5,0.8-0.6,1.4h3.4
		c0-0.6-0.2-1.1-0.5-1.4S37.2,62.2,36.6,62.2z"/>
	<path d="M45.6,61c0.9,0,1.7,0.3,2.2,1c0.5,0.7,0.8,1.6,0.8,2.9c0,1.2-0.3,2.2-0.8,2.9s-1.3,1-2.2,1c-1,0-1.7-0.3-2.2-1h-0.1
		l-0.3,0.9h-1.2V58.1h1.6v2.5c0,0.2,0,0.5,0,0.8s0,0.6,0,0.7h0.1C43.8,61.4,44.6,61,45.6,61z M45.2,62.3c-0.6,0-1.1,0.2-1.4,0.6
		c-0.3,0.4-0.4,1-0.4,1.9v0.1c0,0.9,0.1,1.6,0.4,2c0.3,0.4,0.8,0.6,1.4,0.6c0.6,0,1-0.2,1.3-0.7c0.3-0.5,0.4-1.1,0.4-2
		C46.9,63.2,46.3,62.3,45.2,62.3z"/>
	<path d="M60.4,68.7l-1-2.8h-3.8l-1,2.8h-1.7l3.7-10h1.8l3.7,10H60.4z M59,64.5l-0.9-2.7c-0.1-0.2-0.2-0.5-0.3-0.9
		c-0.1-0.4-0.2-0.7-0.2-0.9c-0.1,0.6-0.3,1.2-0.5,1.8l-0.9,2.6H59z"/>
	<path d="M70.1,61.7c0,1-0.3,1.8-1,2.4c-0.7,0.6-1.7,0.8-2.9,0.8h-1v3.7h-1.6v-10h2.9c1.2,0,2.2,0.3,2.8,0.8
		C69.8,60,70.1,60.7,70.1,61.7z M65.1,63.6H66c0.8,0,1.5-0.1,1.8-0.4c0.4-0.3,0.6-0.7,0.6-1.4c0-0.6-0.2-1-0.5-1.3
		c-0.4-0.3-0.9-0.4-1.6-0.4h-1.1V63.6z"/>
	<path d="M72.1,68.7v-10h1.6v10H72.1z"/>
</g>
<g class="st1">
	<path d="M144.8,68.7l-2.9-8.3h-0.1c0.1,1.2,0.1,2.4,0.1,3.5v4.9h-1.5v-10h2.3l2.8,8h0l2.9-8h2.3v10h-1.6v-4.9c0-0.5,0-1.1,0-1.9
		c0-0.8,0-1.3,0.1-1.4h-0.1l-3,8.3H144.8z"/>
	<path d="M159.1,58.7h1.7l-3.5,10h-1.7l-3.5-10h1.7l2.1,6.2c0.1,0.3,0.2,0.7,0.3,1.1c0.1,0.5,0.2,0.8,0.2,1c0.1-0.3,0.2-0.7,0.3-1.2
		c0.1-0.5,0.2-0.8,0.3-1L159.1,58.7z"/>
	<path d="M166.3,60c-0.9,0-1.7,0.3-2.2,1c-0.5,0.7-0.8,1.6-0.8,2.8c0,1.2,0.3,2.2,0.8,2.8c0.5,0.6,1.3,0.9,2.2,0.9
		c0.4,0,0.8,0,1.2-0.1c0.4-0.1,0.8-0.2,1.2-0.3v1.4c-0.8,0.3-1.7,0.4-2.7,0.4c-1.5,0-2.6-0.4-3.4-1.3c-0.8-0.9-1.2-2.2-1.2-3.8
		c0-1,0.2-1.9,0.6-2.7c0.4-0.8,0.9-1.4,1.7-1.8c0.7-0.4,1.6-0.6,2.5-0.6c1,0,2,0.2,2.8,0.6l-0.6,1.4c-0.3-0.2-0.7-0.3-1.1-0.4
		C167.2,60,166.8,60,166.3,60z"/>
</g>
<g>
	<path id="_x39_7819598-6e9f-48ba-abf0-a94d9f83d7d3" class="st2" d="M44.4,11.9c-0.7,0-1.4,0.1-2.2,0.2c-2.1,0.4-4,1.2-5.8,2.4
		c0.6,0.5,1.1,1.1,1.5,1.8c2-1.6,3.9-2.8,5.9-3.6c0.7-0.3,1.4-0.5,2.2-0.6C45.5,12,45,11.9,44.4,11.9"/>
	<path id="_x32_3d774d1-91fa-4e56-bfb9-94e7f4e329ae" class="st3" d="M35.5,15.2c-0.3,0.2-0.5,0.4-0.8,0.6c0.4,0.9,0.7,1.7,1,2.6
		c0.4-0.4,0.8-0.8,1.2-1.2C36.5,16.5,36,15.8,35.5,15.2"/>
	<path id="ebc0b52f-3316-475b-9be5-fc1487e19a18" class="st4" d="M36.5,14.6c-0.3,0.2-0.6,0.4-1,0.6c0.5,0.6,1,1.3,1.4,2.1
		c0.4-0.3,0.7-0.6,1.1-0.9C37.6,15.7,37.1,15.1,36.5,14.6"/>
	<path id="a04c711b-a119-4f72-b0a8-6d09efacd666" class="st5" d="M31.9,18.2c0.9-0.8,1.8-1.6,2.8-2.4c-0.2-0.4-0.4-0.9-0.7-1.3
		C33.2,15.6,32.5,16.9,31.9,18.2"/>
	<path id="_x36_ebcf5ab-b7fa-449a-beb2-80c47c61c2c9" class="st5" d="M32.6,12.7c0.6,0.5,1.1,1.1,1.4,1.8c0.1-0.2,0.3-0.3,0.4-0.5
		c-0.6-0.6-1.3-1-2-1.4C32.5,12.7,32.5,12.7,32.6,12.7L32.6,12.7"/>
	<path id="_x38_65daab0-63c2-4e3b-b94b-b74611d290fa" class="st6" d="M34.5,14.1c-0.1,0.1-0.3,0.3-0.4,0.5c0.2,0.4,0.5,0.8,0.7,1.3
		c0.3-0.2,0.5-0.4,0.8-0.6C35.2,14.8,34.8,14.4,34.5,14.1"/>
	<path id="b0f1eb5c-7675-46bd-a91a-90273159cbd9" class="st7" d="M30,12L30,12c0.1,0,0.1,0,0.2,0l0,0h0.2l0,0h0.2l0,0
		c0.1,0,0.3,0.1,0.4,0.1l0,0c0.1,0,0.1,0,0.2,0s0,0,0,0c0.1,0,0.1,0,0.2,0.1l0,0l0.2,0.1c0,0,0,0,0.1,0l0.1,0.1c0,0,0,0,0.1,0
		l0.2,0.1h0.1h0.1h0.1h0.1c0.7,0.4,1.4,0.8,2,1.4c0.2-0.2,0.5-0.4,0.7-0.5c-1.3-1-2.9-1.5-4.6-1.5C30.4,12,30.2,12,30,12"/>
	<path id="_x35_3ff3482-b37f-4066-8274-d5b329d4fc8a" class="st8" d="M34.5,14.1c0.4,0.4,0.7,0.7,1.1,1.1c0.3-0.2,0.6-0.4,1-0.6
		c-0.4-0.4-0.9-0.8-1.3-1.1C34.9,13.6,34.7,13.8,34.5,14.1"/>
	<g id="_x36_c66e2bd-1e57-46c8-a142-9f0839c9e3e2">
		
			<linearGradient id="_x32_2dd263f-07a8-4d3f-8368-f4932ee90850_2_" gradientUnits="userSpaceOnUse" x1="564.3764" y1="419.6427" x2="564.659" y2="419.6427" gradientTransform="matrix(28.5 11.82 11.82 -28.5 -21013.207 5299.5811)">
			<stop  offset="0" style="stop-color:#97D6EE"/>
			<stop  offset="0.7" style="stop-color:#55C1EA"/>
			<stop  offset="1" style="stop-color:#55C1EA"/>
		</linearGradient>
		<path id="_x32_2dd263f-07a8-4d3f-8368-f4932ee90850" class="st9" d="M30,12c0.2,0,0.4,0,0.6,0c1.6,0,3.2,0.5,4.5,1.5
			c1.4-1.1,3.1-1.5,5.4-1.5H29.2C29.5,11.9,29.8,12,30,12"/>
	</g>
	<g id="_x37_9e23897-e286-4546-9947-b8db24890c0f">
		
			<linearGradient id="_x38_756facc-76ee-42ee-a12b-95b4beccc6f7_2_" gradientUnits="userSpaceOnUse" x1="564.5551" y1="440.2921" x2="564.8377" y2="440.2921" gradientTransform="matrix(22.51 -10.21 -10.21 -22.51 -8177.626 15689.7783)">
			<stop  offset="0" style="stop-color:#7ACCEC"/>
			<stop  offset="1" style="stop-color:#3FB7ED"/>
		</linearGradient>
		<path id="_x38_756facc-76ee-42ee-a12b-95b4beccc6f7" class="st10" d="M40.6,11.9c-2.3,0-4,0.4-5.4,1.5c0.5,0.3,0.9,0.7,1.3,1.1
			c1.7-1.2,3.7-2,5.8-2.4c0.7-0.1,1.4-0.2,2.2-0.2C44.5,11.9,40.6,11.9,40.6,11.9z"/>
	</g>
	<g>
		
			<linearGradient id="_x39_fff70fe-4a20-4395-b73e-68995a9a1993_1_" gradientUnits="userSpaceOnUse" x1="584.738" y1="418.1647" x2="585.0207" y2="418.1647" gradientTransform="matrix(0 149.73 149.73 0 -62568.1055 -87540.0312)">
			<stop  offset="0" style="stop-color:#0994DC"/>
			<stop  offset="0.35" style="stop-color:#66CEF5"/>
			<stop  offset="0.85" style="stop-color:#127BCA"/>
			<stop  offset="1" style="stop-color:#127BCA"/>
		</linearGradient>
		<path id="_x39_fff70fe-4a20-4395-b73e-68995a9a1993" class="st11" d="M35.7,18.4c3.2,9.8,4.4,27.2,13.8,27.2l0,0
			c0.7,0,1.4-0.1,2.2-0.2l0,0c-8.5-2-9.5-19.2-14.7-28.2l0,0C36.5,17.6,36.1,18,35.7,18.4"/>
		
			<linearGradient id="_x32_43f39b0-4082-4326-ab36-66325b69c66c_1_" gradientUnits="userSpaceOnUse" x1="584.7976" y1="418.2385" x2="585.0805" y2="418.2385" gradientTransform="matrix(0 153.55 153.55 0 -64175.2656 -89784.9453)">
			<stop  offset="0" style="stop-color:#0E76BC"/>
			<stop  offset="0.36" style="stop-color:#36AEE8"/>
			<stop  offset="0.85" style="stop-color:#00ADEF"/>
			<stop  offset="1" style="stop-color:#00ADEF"/>
		</linearGradient>
		<path id="_x32_43f39b0-4082-4326-ab36-66325b69c66c" class="st12" d="M36.9,17.3c5.2,8.9,6.2,26.2,14.7,28.1l0,0
			c0.7-0.1,1.4-0.3,2-0.5l0,0C46,41.2,43.9,24.4,38,16.3l0,0C37.6,16.6,37.3,16.9,36.9,17.3"/>
		<path id="_x39_7819598-6e9f-48ba-abf0-a94d9f83d7d3_1_" class="st2" d="M44.4,11.9c-0.7,0-1.4,0.1-2.2,0.2c-2.1,0.4-4,1.2-5.8,2.4
			c0.6,0.5,1.1,1.1,1.5,1.8c2-1.6,3.9-2.8,5.9-3.6c0.7-0.3,1.4-0.5,2.2-0.6C45.5,12,45,11.9,44.4,11.9"/>
		
			<linearGradient id="_x38_1f715f6-f916-4876-819b-8c81d8a91545_1_" gradientUnits="userSpaceOnUse" x1="587.9407" y1="428.4592" x2="588.2234" y2="428.4592" gradientTransform="matrix(0 -122.18 -122.18 0 52403.1445 71879.5938)">
			<stop  offset="0" style="stop-color:#1C63B7"/>
			<stop  offset="0.5" style="stop-color:#33BDF2"/>
			<stop  offset="1" style="stop-color:#33BDF2;stop-opacity:0.42"/>
		</linearGradient>
		<path id="_x38_1f715f6-f916-4876-819b-8c81d8a91545" class="st13" d="M59.6,41.4c0.8-0.6,1.6-1.3,2.3-2.1
			c-3.2-9.7-4.4-27.4-13.8-27.4c-0.7,0-1.4,0.1-2,0.2C54.6,14.3,55.7,32.9,59.6,41.4"/>
		<path id="_x33_c940e22-c3d9-4699-9c57-429d09d5f108_1_" class="st14" d="M46.1,12.1c-0.5-0.1-1.1-0.2-1.7-0.2h3.7
			C47.4,11.9,46.7,12,46.1,12.1"/>
		<path id="_x35_4141d07-e248-4d8c-8527-44f0f1aece10" class="st15" d="M59.4,43.5c-0.4-0.4-0.7-0.7-1.1-1.1c-1.5,1.1-3,1.9-4.7,2.5
			c0.6,0.3,1.2,0.5,1.8,0.6c0.5,0.1,1,0.2,1.5,0.1c1.8,0,3.1-0.2,4.3-0.8C60.6,44.5,60,44,59.4,43.5"/>
		
			<linearGradient id="ef55eeec-9389-4b7d-aad8-972a9b0edfaa_1_" gradientUnits="userSpaceOnUse" x1="584.9267" y1="418.285" x2="585.2095" y2="418.285" gradientTransform="matrix(0 159.43 159.43 0 -66635.4297 -93249.5156)">
			<stop  offset="0" style="stop-color:#166AB8"/>
			<stop  offset="0.4" style="stop-color:#36AEE8"/>
			<stop  offset="0.85" style="stop-color:#0798DD"/>
			<stop  offset="1" style="stop-color:#0798DD"/>
		</linearGradient>
		<path id="ef55eeec-9389-4b7d-aad8-972a9b0edfaa" class="st16" d="M43.9,12.8c7.7,4,8.4,22.2,14.5,29.6l0,0
			c0.4-0.3,0.8-0.6,1.2-0.9l0,0c-3.9-8.6-5-27.2-13.5-29.4l0,0C45.3,12.3,44.6,12.5,43.9,12.8"/>
		
			<linearGradient id="_x39_47df287-50e3-4afd-a65c-b12952837621_1_" gradientUnits="userSpaceOnUse" x1="584.9719" y1="418.6067" x2="585.2546" y2="418.6067" gradientTransform="matrix(0 169.53 169.53 0 -70918.2422 -99164.1953)">
			<stop  offset="0" style="stop-color:#124379"/>
			<stop  offset="0.39" style="stop-color:#1487CB"/>
			<stop  offset="0.78" style="stop-color:#165197"/>
			<stop  offset="1" style="stop-color:#165197"/>
		</linearGradient>
		<path id="_x39_47df287-50e3-4afd-a65c-b12952837621" class="st17" d="M38,16.3c5.9,8.1,8,24.8,15.6,28.6l0,0
			c1.7-0.6,3.3-1.5,4.7-2.5l0,0c-6.1-7.4-6.8-25.6-14.5-29.6l0,0C41.9,13.5,40,14.7,38,16.3"/>
		
			<linearGradient id="_x32_2ab39c0-5aeb-481a-a344-2af6a77fbb68_1_" gradientUnits="userSpaceOnUse" x1="1385.5905" y1="-1598.2109" x2="1387.2671" y2="-1598.2109" gradientTransform="matrix(4.04 0 0 -4.04 -5568.7393 -6435.5723)">
			<stop  offset="0" style="stop-color:#33BDF2;stop-opacity:0.7"/>
			<stop  offset="1" style="stop-color:#1DACD8"/>
		</linearGradient>
		<path id="_x32_2ab39c0-5aeb-481a-a344-2af6a77fbb68" class="st18" d="M31.9,18.2c-0.9,2.1-1.9,4.8-3,8.4c2-2.9,4.3-5.6,6.8-8.2
			c-0.3-0.9-0.6-1.8-1-2.6C33.7,16.5,32.8,17.3,31.9,18.2"/>
		<path id="_x32_3d774d1-91fa-4e56-bfb9-94e7f4e329ae_1_" class="st3" d="M35.5,15.2c-0.3,0.2-0.5,0.4-0.8,0.6
			c0.4,0.9,0.7,1.7,1,2.6c0.4-0.4,0.8-0.8,1.2-1.2C36.5,16.5,36,15.8,35.5,15.2"/>
		<path id="ebc0b52f-3316-475b-9be5-fc1487e19a18_1_" class="st4" d="M36.5,14.6c-0.3,0.2-0.6,0.4-1,0.6c0.5,0.6,1,1.3,1.4,2.1
			c0.4-0.3,0.7-0.6,1.1-0.9C37.6,15.7,37.1,15.1,36.5,14.6"/>
		
			<linearGradient id="e222603b-39c1-4207-8880-0dbfaf77ca7a_1_" gradientUnits="userSpaceOnUse" x1="587.9744" y1="429.1649" x2="588.2573" y2="429.1649" gradientTransform="matrix(0 -119.02 -119.02 0 51158.9102 70024.9453)">
			<stop  offset="0" style="stop-color:#136AB4"/>
			<stop  offset="0.6" style="stop-color:#59CAF5;stop-opacity:0.55"/>
			<stop  offset="1" style="stop-color:#59CAF5;stop-opacity:0.24"/>
		</linearGradient>
		<path id="e222603b-39c1-4207-8880-0dbfaf77ca7a" class="st19" d="M88.9,11.2c-4.3,16.8-13.4,30.2-21,33.6l0,0
			c-0.1,0.1-0.3,0.1-0.4,0.2c0,0,0,0-0.1,0h-0.1c0,0,0,0-0.1,0s-0.1,0-0.2,0.1h-0.1h-0.1h-0.1h-0.1h-0.2c0,0,0,0-0.1,0h-0.1
			c0,0,0,0-0.1,0H66h-0.1c0.3,0.1,0.7,0.2,1.1,0.2c7.2,0,14.5-12.9,26.5-34.4L88.9,11.2L88.9,11.2z"/>
		
			<linearGradient id="_x38_5ae914f-805b-4263-985a-0762281d3e57_1_" gradientUnits="userSpaceOnUse" x1="1379.6331" y1="-1600.2516" x2="1385.8591" y2="-1600.2516" gradientTransform="matrix(4.04 0 0 -4.04 -5568.7393 -6435.5723)">
			<stop  offset="0" style="stop-color:#05A1E6;stop-opacity:0.25"/>
			<stop  offset="1" style="stop-color:#05A1E6"/>
		</linearGradient>
		<path id="_x38_5ae914f-805b-4263-985a-0762281d3e57" class="st20" d="M27.4,12.6L27.4,12.6L27.4,12.6L27.4,12.6
			C27.5,12.6,27.5,12.6,27.4,12.6L27.4,12.6L27.4,12.6h0.2l0,0c0.1,0,0.2-0.1,0.3-0.1l0,0H28c0,0,0,0,0.1,0h0.1l0,0
			c0.1,0,0.3-0.1,0.4-0.1c0,0,0,0,0.1,0h0.1c0,0,0,0,0.1,0H29l0,0h0.2l0,0h0.1c0,0,0,0,0.1,0h0.1c0,0,0,0,0.1,0s0.2,0,0.3,0
			c-0.2,0-0.5,0-0.8,0C21.1,11.9,9.9,27,4.9,46.5h1c1.6-2.9,3.1-5.6,4.4-8.2C13.8,24.6,21,15.1,27.4,12.6"/>
		<path id="a04c711b-a119-4f72-b0a8-6d09efacd666_1_" class="st5" d="M31.9,18.2c0.9-0.8,1.8-1.6,2.8-2.4c-0.2-0.4-0.4-0.9-0.7-1.3
			C33.2,15.6,32.5,16.9,31.9,18.2"/>
		<path id="_x36_ebcf5ab-b7fa-449a-beb2-80c47c61c2c9_1_" class="st5" d="M32.6,12.7c0.6,0.5,1.1,1.1,1.4,1.8
			c0.1-0.2,0.3-0.3,0.4-0.5c-0.6-0.6-1.3-1-2-1.4C32.5,12.7,32.5,12.7,32.6,12.7L32.6,12.7"/>
		
			<linearGradient id="_x39_53eeb24-d604-49e3-9d66-756a1f2cbf49_1_" gradientUnits="userSpaceOnUse" x1="587.9578" y1="427.73" x2="588.2406" y2="427.73" gradientTransform="matrix(0 -121.87 -121.87 0 52146.3125 71700.1328)">
			<stop  offset="0" style="stop-color:#318ED5"/>
			<stop  offset="1" style="stop-color:#38A7E4"/>
		</linearGradient>
		<path id="_x39_53eeb24-d604-49e3-9d66-756a1f2cbf49" class="st21" d="M10.3,38.4c7.4-14.3,10.9-23.3,17.1-25.8l0,0
			C21,15.1,13.8,24.6,10.3,38.4"/>
		<path id="_x38_65daab0-63c2-4e3b-b94b-b74611d290fa_1_" class="st6" d="M34.5,14.1c-0.1,0.1-0.3,0.3-0.4,0.5
			c0.2,0.4,0.5,0.8,0.7,1.3c0.3-0.2,0.5-0.4,0.8-0.6C35.2,14.8,34.8,14.4,34.5,14.1"/>
		
			<linearGradient id="_x35_f1ad690-e159-4c0d-aa7a-dbfe59f0a4dd_1_" gradientUnits="userSpaceOnUse" x1="588.0005" y1="427.9382" x2="588.2831" y2="427.9382" gradientTransform="matrix(0 -118.46 -118.46 0 50714.6094 69699.3281)">
			<stop  offset="0" style="stop-color:#05A1E6"/>
			<stop  offset="1" style="stop-color:#05A1E6;stop-opacity:0.55"/>
		</linearGradient>
		<path id="_x35_f1ad690-e159-4c0d-aa7a-dbfe59f0a4dd" class="st22" d="M13.6,46.5L13.6,46.5h-0.1l0,0h-0.1l0,0c-0.1,0-0.2,0-0.3,0
			l0,0c7.5-0.2,10.9-4,12.6-9.4C27,33,28.1,29.5,29,26.6c-3.1,4.4-6.3,9.7-9.5,15.6C17.9,45,15.6,46.2,13.6,46.5"/>
		
			<linearGradient id="_x30_b513344-d537-42bf-9244-5c1e088e479b_1_" gradientUnits="userSpaceOnUse" x1="588.4295" y1="428.9498" x2="588.7122" y2="428.9498" gradientTransform="matrix(0 -100.1 -100.1 0 42960.6758 58948.2461)">
			<stop  offset="0" style="stop-color:#1959A6"/>
			<stop  offset="0.5" style="stop-color:#05A1E6"/>
			<stop  offset="0.92" style="stop-color:#7EC5EA"/>
			<stop  offset="1" style="stop-color:#7EC5EA"/>
		</linearGradient>
		<path id="_x30_b513344-d537-42bf-9244-5c1e088e479b" class="st23" d="M13.6,46.5L13.6,46.5c2-0.3,4.3-1.4,5.9-4.3l0,0
			c3.2-5.9,6.3-11.2,9.5-15.6l0,0c1.1-3.6,2.1-6.3,3-8.4l0,0C25.7,24.1,19.4,34,13.6,46.5"/>
		<path id="_x39_f519050-16cf-43f4-8aca-06a338614d2e" class="st24" d="M10.3,38.4c-1.3,2.5-2.8,5.3-4.4,8.2h2.8
			C9,43.8,9.6,41.1,10.3,38.4"/>
		
			<linearGradient id="_x34_d2dab44-9cc2-4328-b84c-5a74546910ff_1_" gradientUnits="userSpaceOnUse" x1="589.1328" y1="427.913" x2="589.4156" y2="427.913" gradientTransform="matrix(-19.14 -108.54 -108.54 19.14 57745.707 55799.7812)">
			<stop  offset="0" style="stop-color:#165096"/>
			<stop  offset="1" style="stop-color:#0D82CA"/>
		</linearGradient>
		<path id="_x34_d2dab44-9cc2-4328-b84c-5a74546910ff" class="st25" d="M29.8,12C29.7,12,29.7,12,29.8,12L29.8,12
			c-0.1,0-0.1,0-0.2,0l0,0c0,0,0,0-0.1,0l0,0h-0.1l0,0l0,0l0,0h-0.2l0,0h-0.1l0,0c0,0,0,0-0.1,0.1l0,0h-0.1l0,0c0,0,0,0-0.1,0l0,0
			l-0.4,0.1l0,0l0,0l0,0h-0.1l0,0c0,0,0,0-0.1,0l0,0h-0.1l0,0l0,0l0,0c-0.1,0-0.2,0.1-0.3,0.1l0,0h-0.1l0,0c0,0,0,0-0.1,0l0,0
			l-0.1,0.1l0,0l0,0l0,0c-6.2,2.5-9.7,11.5-17.1,25.8l0,0c-0.7,2.7-1.2,5.4-1.6,8.2h0.3c1.1,0,1.4,0,2.7,0H13c0.1,0,0.2,0,0.3,0l0,0
			h0.1l0,0h0.1l0,0C19.3,34,25.6,24.1,31.8,18.1l0,0c0.5-1.3,1.2-2.5,2.1-3.7l0,0c-0.4-0.7-0.9-1.3-1.4-1.8l0,0l0,0l0,0h-0.1l0,0
			h-0.1l0,0l-0.1-0.1l0,0h-0.1l0,0H32l0,0l-0.2-0.1l0,0h-0.1l0,0h-0.1l0,0c0,0,0,0-0.1,0l0,0h-0.2l0,0l-0.2-0.1l0,0l0,0l0,0h-0.2
			l0,0l0,0l0,0c-0.1,0-0.3-0.1-0.4-0.1l0,0l0,0l0,0l-0.2-0.1l0,0l0,0l0,0h-0.2l0,0C30,12.1,30,12.1,29.8,12L29.8,12
			C29.9,12,29.8,12,29.8,12"/>
		
			<linearGradient id="_x31_d48d8f5-63b8-4faf-a435-f71c7a0a9b70_1_" gradientUnits="userSpaceOnUse" x1="589.5236" y1="436.0368" x2="589.8064" y2="436.0368" gradientTransform="matrix(0 -56.72 -56.72 0 24806.0098 33464.9297)">
			<stop  offset="0" style="stop-color:#05A1E6"/>
			<stop  offset="0.87" style="stop-color:#0495D6"/>
			<stop  offset="1" style="stop-color:#0495D6"/>
		</linearGradient>
		<path id="_x31_d48d8f5-63b8-4faf-a435-f71c7a0a9b70" class="st26" d="M71.9,20.5c-1.4,4.6-2.6,8.3-3.6,11.4l0,0
			c3.9-5.4,7.8-12.2,11.4-20l0,0C75.5,13.3,73.2,16.4,71.9,20.5"/>
		
			<linearGradient id="cc16ff1c-5371-4c51-b9a6-d519e11a23ac_1_" gradientUnits="userSpaceOnUse" x1="585.6638" y1="416.7514" x2="585.9465" y2="416.7514" gradientTransform="matrix(-23.06 130.79 130.79 23.06 -40920.0312 -86198.7031)">
			<stop  offset="0" style="stop-color:#38A7E4;stop-opacity:0.33"/>
			<stop  offset="0.96" style="stop-color:#0E88D3"/>
			<stop  offset="1" style="stop-color:#0E88D3"/>
		</linearGradient>
		<path id="cc16ff1c-5371-4c51-b9a6-d519e11a23ac" class="st27" d="M68.5,44.5c-0.2,0.1-0.4,0.2-0.6,0.3c7.6-3.4,16.7-16.9,21-33.6
			H88C78,29,74.8,41,68.5,44.5"/>
		<path id="_x34_a92eb0a-23f2-4663-bb7d-e0fcb24c8723" class="st28" d="M63.5,43c1.7-2,3-5.5,4.8-11.1c-1.9,2.7-4.1,5.2-6.4,7.5l0,0
			C62.3,40.7,62.9,41.9,63.5,43"/>
		<path id="ecaaabfe-1190-4620-bc6a-c512e04e961d" class="st15" d="M63.5,43c-0.5,0.6-1.1,1.2-1.8,1.6c-0.1,0.1-0.3,0.2-0.4,0.2
			c0.7,0.4,1.5,0.6,2.3,0.7l0,0H64l0,0c0.1,0,0.1,0,0.2,0h0.6c0,0,0,0,0.1,0H65h0.1c0.1,0,0.1,0,0.1,0l0,0l0,0h0.2l0,0h0.2l0,0
			c0.1,0,0.2,0,0.4-0.1C65,45.1,64.2,44.3,63.5,43"/>
		<path id="a31cfa16-c37c-4f0c-abed-6ceac8fc0002" class="st29" d="M49.5,45.6c0.7,0,1.4-0.1,2.2-0.2c0.7-0.1,1.4-0.3,2-0.5
			c0.6,0.3,1.2,0.5,1.8,0.6c0.5,0.1,1,0.2,1.5,0.1C57,45.6,49.5,45.6,49.5,45.6z"/>
		<path id="ee3f6138-9342-427d-bc90-32faf721f109" class="st29" d="M56.9,45.6c1.8,0,3.2-0.2,4.3-0.8c0.7,0.4,1.5,0.6,2.3,0.7l0,0
			c0.1,0,0.3,0,0.4,0l0,0c0.1,0,0.1,0,0.2,0L56.9,45.6L56.9,45.6z"/>
		<path id="_x34_f1292cc-2f6d-44dd-a027-69e235bed4d3" class="st30" d="M64.4,45.6h0.4c0,0,0,0,0.1,0H65h0.1h0.1l0,0l0,0
			c0,0,0.1,0,0.2,0l0,0h0.2l0,0c0.1,0,0.2,0,0.4-0.1l0,0c0.3,0.1,0.7,0.2,1.1,0.2L64.4,45.6L64.4,45.6z"/>
		<path id="_x33_4253ca9-185f-44f6-b6e3-f2facbc99a96" class="st31" d="M61.9,39.4L61.9,39.4c-0.8,0.8-1.6,1.4-2.3,2.1
			c-0.4,0.3-0.8,0.6-1.2,0.9c0.3,0.4,0.7,0.8,1.1,1.1c0.5,0.5,1.1,1,1.8,1.4c0.1-0.1,0.3-0.2,0.4-0.2c0.7-0.4,1.3-1,1.8-1.6
			C62.9,41.9,62.3,40.7,61.9,39.4"/>
		
			<linearGradient id="f153080f-0bd7-4ff0-9dc1-1701c7d2f494_1_" gradientUnits="userSpaceOnUse" x1="584.5222" y1="416.5501" x2="584.8051" y2="416.5501" gradientTransform="matrix(0 123.74 123.74 0 -51467.9062 -72317)">
			<stop  offset="0" style="stop-color:#168CD4"/>
			<stop  offset="0.5" style="stop-color:#1C87CC"/>
			<stop  offset="1" style="stop-color:#154B8D"/>
		</linearGradient>
		<path id="f153080f-0bd7-4ff0-9dc1-1701c7d2f494" class="st32" d="M85.2,11.2h-4.4c-0.2,0-0.5,0-0.7,0l0,0
			c-0.1,0.2-0.2,0.5-0.3,0.7l0,0c-3.7,7.8-7.5,14.6-11.4,20l0,0c-1.8,5.7-3.2,9.1-4.8,11.1l0,0c0.7,1.2,1.5,2.1,2.5,2.4l0,0h0.1l0,0
			c0,0,0,0,0.1,0l0,0h0.1l0,0c0,0,0,0,0.1,0l0,0h0.1l0,0c0,0,0,0,0.1,0l0,0l0.2-0.1l0,0H67l0,0h0.1l0,0h0.1l0,0h0.1l0,0l0.2-0.1l0,0
			c0,0,0,0,0.1,0l0,0h0.1l0,0c0,0,0,0,0.1,0l0,0c0.1-0.1,0.3-0.1,0.4-0.2l0,0c0.2-0.1,0.4-0.2,0.6-0.3l0,0
			c6.4-3.6,9.6-15.5,19.6-33.3L85.2,11.2L85.2,11.2z"/>
		<path id="b0f1eb5c-7675-46bd-a91a-90273159cbd9_1_" class="st7" d="M30,12L30,12c0.1,0,0.1,0,0.2,0l0,0h0.2l0,0h0.2l0,0
			c0.1,0,0.3,0.1,0.4,0.1l0,0c0.1,0,0.1,0,0.2,0s0,0,0,0c0.1,0,0.1,0,0.2,0.1l0,0l0.2,0.1c0,0,0,0,0.1,0l0.1,0.1c0,0,0,0,0.1,0
			l0.2,0.1h0.1h0.1h0.1h0.1c0.7,0.4,1.4,0.8,2,1.4c0.2-0.2,0.5-0.4,0.7-0.5c-1.3-1-2.9-1.5-4.6-1.5C30.4,12,30.2,12,30,12"/>
		<path id="_x35_3ff3482-b37f-4066-8274-d5b329d4fc8a_1_" class="st8" d="M34.5,14.1c0.4,0.4,0.7,0.7,1.1,1.1c0.3-0.2,0.6-0.4,1-0.6
			c-0.4-0.4-0.9-0.8-1.3-1.1C34.9,13.6,34.7,13.8,34.5,14.1"/>
		<g id="_x36_c66e2bd-1e57-46c8-a142-9f0839c9e3e2_1_">
			
				<linearGradient id="_x32_2dd263f-07a8-4d3f-8368-f4932ee90850_3_" gradientUnits="userSpaceOnUse" x1="564.3764" y1="419.6427" x2="564.659" y2="419.6427" gradientTransform="matrix(28.5 11.82 11.82 -28.5 -21013.207 5299.5811)">
				<stop  offset="0" style="stop-color:#97D6EE"/>
				<stop  offset="0.7" style="stop-color:#55C1EA"/>
				<stop  offset="1" style="stop-color:#55C1EA"/>
			</linearGradient>
			<path id="_x32_2dd263f-07a8-4d3f-8368-f4932ee90850_1_" class="st33" d="M30,12c0.2,0,0.4,0,0.6,0c1.6,0,3.2,0.5,4.5,1.5
				c1.4-1.1,3.1-1.5,5.4-1.5H29.2C29.5,11.9,29.8,12,30,12"/>
		</g>
		<g id="_x37_9e23897-e286-4546-9947-b8db24890c0f_1_">
			
				<linearGradient id="_x38_756facc-76ee-42ee-a12b-95b4beccc6f7_3_" gradientUnits="userSpaceOnUse" x1="564.5551" y1="440.2921" x2="564.8377" y2="440.2921" gradientTransform="matrix(22.51 -10.21 -10.21 -22.51 -8177.626 15689.7783)">
				<stop  offset="0" style="stop-color:#7ACCEC"/>
				<stop  offset="1" style="stop-color:#3FB7ED"/>
			</linearGradient>
			<path id="_x38_756facc-76ee-42ee-a12b-95b4beccc6f7_1_" class="st34" d="M40.6,11.9c-2.3,0-4,0.4-5.4,1.5
				c0.5,0.3,0.9,0.7,1.3,1.1c1.7-1.2,3.7-2,5.8-2.4c0.7-0.1,1.4-0.2,2.2-0.2C44.5,11.9,40.6,11.9,40.6,11.9z"/>
		</g>
		
			<linearGradient id="feddcb59-4309-445f-859a-b895ced50bea_1_" gradientUnits="userSpaceOnUse" x1="584.4504" y1="416.5091" x2="584.7331" y2="416.5091" gradientTransform="matrix(0 121.03 121.03 0 -50339.1992 -70722.3984)">
			<stop  offset="0" style="stop-color:#1DA7E7"/>
			<stop  offset="1" style="stop-color:#37ABE7;stop-opacity:0"/>
		</linearGradient>
		<path id="feddcb59-4309-445f-859a-b895ced50bea" class="st35" d="M68.3,31.9c1-3.1,2.2-6.9,3.6-11.4c1.3-4.1,3.6-7.2,7.8-8.5
			c0.1-0.2,0.2-0.5,0.3-0.7c-7,0.4-10.2,4-11.9,9.2c-2.9,9.2-4.6,15.1-6.3,18.9C64.3,37.1,66.4,34.6,68.3,31.9"/>
	</g>
</g>
<g>
	<circle class="st36" cx="155.5" cy="27.2" r="23.1"/>
	<path class="st37" d="M139.5,10.6c-9.5,8.5-10.4,23.1-1.9,32.6s23.1,10.4,32.6,1.9c0.7-0.6,1.3-1.2,1.9-1.9L139.5,10.6z"/>
	<path class="st38" d="M137.8,31c-0.3,0-0.5-0.1-0.7-0.3s-0.3-0.5-0.3-0.7c0-0.3,0.1-0.5,0.3-0.7s0.4-0.3,0.7-0.3s0.5,0.1,0.7,0.3
		s0.3,0.5,0.3,0.7c0,0.3-0.1,0.5-0.3,0.7S138,31,137.8,31z"/>
	<path class="st38" d="M152.1,30.8h-1.9l-6.8-10.5c-0.2-0.3-0.3-0.5-0.4-0.8h-0.1c0.1,0.6,0.1,1.2,0.1,1.8v9.5h-1.5V17.7h2l6.6,10.3
		c0.3,0.4,0.5,0.7,0.5,0.9l0,0c-0.1-0.6-0.1-1.3-0.1-1.9v-9.3h1.5L152.1,30.8L152.1,30.8z"/>
	<path class="st38" d="M162.5,30.8h-7V17.7h6.7v1.4h-5.1v4.4h4.8v1.4h-4.8v4.6h5.4L162.5,30.8z"/>
	<path class="st38" d="M172.9,19h-3.8v11.8h-1.5V19h-3.8v-1.4h9.2L172.9,19L172.9,19z"/>
	<path class="st39" d="M151.3,39.8c-0.5,0.3-1.1,0.4-1.7,0.4c-0.8,0-1.5-0.3-2.1-0.8c-0.5-0.6-0.8-1.4-0.8-2.2
		c0-0.9,0.3-1.7,0.9-2.4c0.6-0.6,1.4-0.9,2.2-0.9c0.5,0,1,0.1,1.4,0.3v0.7c-0.4-0.2-0.9-0.4-1.4-0.4c-0.6,0-1.3,0.2-1.7,0.7
		c-0.5,0.5-0.7,1.2-0.7,1.9c0,0.6,0.2,1.3,0.6,1.8c0.4,0.4,1,0.7,1.6,0.7s1.1-0.1,1.6-0.4L151.3,39.8z"/>
	<path class="st39" d="M154.2,40.1c-0.6,0-1.1-0.2-1.5-0.6c-0.4-0.4-0.6-1-0.6-1.6s0.2-1.2,0.6-1.7c0.4-0.4,1-0.6,1.6-0.6
		s1.1,0.2,1.5,0.6c0.4,0.5,0.6,1.1,0.5,1.7c0,0.6-0.2,1.2-0.6,1.7C155.4,39.9,154.8,40.2,154.2,40.1z M154.3,36.2
		c-0.4,0-0.8,0.2-1.1,0.5c-0.3,0.4-0.4,0.8-0.4,1.3c0,0.4,0.1,0.9,0.4,1.2c0.3,0.3,0.7,0.5,1.1,0.4c0.4,0,0.8-0.1,1-0.4
		c0.3-0.4,0.4-0.8,0.4-1.2s-0.1-0.9-0.4-1.3C155.1,36.3,154.7,36.2,154.3,36.2z"/>
	<path class="st39" d="M159.8,36.4c-0.2-0.1-0.3-0.2-0.5-0.1c-0.3,0-0.6,0.2-0.7,0.4c-0.2,0.3-0.3,0.7-0.3,1.1V40h-0.7v-4.3h0.7v0.9
		l0,0c0.1-0.3,0.2-0.5,0.5-0.7c0.2-0.2,0.4-0.3,0.7-0.3c0.1,0,0.3,0,0.4,0.1L159.8,36.4L159.8,36.4z"/>
	<path class="st39" d="M164,38.1h-3.1c0,0.4,0.1,0.8,0.4,1.1c0.3,0.3,0.6,0.4,1,0.4c0.5,0,1-0.2,1.3-0.5v0.7c-0.4,0.3-1,0.4-1.5,0.4
		s-1.1-0.2-1.4-0.6c-0.4-0.5-0.6-1.1-0.5-1.7c0-0.6,0.2-1.2,0.6-1.6c0.4-0.4,0.9-0.7,1.4-0.6c0.5,0,1,0.2,1.3,0.5
		c0.3,0.4,0.5,1,0.5,1.5V38.1z M163.3,37.5c0-0.3-0.1-0.7-0.3-0.9s-0.5-0.3-0.8-0.3s-0.6,0.1-0.8,0.4c-0.2,0.3-0.4,0.6-0.4,0.9
		L163.3,37.5z"/>
</g>
</svg>
